<?xml version="1.0" standalone="no"?>
<!DOCTYPE svg PUBLIC "-//W3C//DTD SVG 20010904//EN"
 "http://www.w3.org/TR/2001/REC-SVG-20010904/DTD/svg10.dtd">
<svg version="1.0" xmlns="http://www.w3.org/2000/svg"
 width="700.000000pt" height="700.000000pt" viewBox="0 0 700.000000 700.000000"
 preserveAspectRatio="xMidYMid meet">
<metadata>
Created by potrace 1.11, written by Peter Selinger 2001-2013
</metadata>
<g transform="translate(0.000000,700.000000) scale(0.100000,-0.100000)"
fill="#000000" stroke="none">
<path d="M0 3500 l0 -3500 3500 0 3500 0 0 3500 0 3500 -3500 0 -3500 0 0
-3500z m6830 0 l0 -3330 -3330 0 -3330 0 0 3330 0 3330 3330 0 3330 0 0 -3330z"/>
<path d="M3380 3495 l-2245 -2245 125 0 125 0 2238 2238 c1230 1230 2237 2240
2237 2245 0 4 -53 7 -118 7 l-117 0 -2245 -2245z"/>
<path d="M1110 5723 c0 -5 154 -396 342 -870 l342 -863 121 0 120 0 333 848
c183 466 335 857 339 870 l5 22 -178 -2 -178 -3 -218 -605 c-119 -333 -218
-609 -220 -613 -2 -4 -104 269 -228 608 l-225 615 -177 0 c-98 0 -178 -3 -178
-7z"/>
<path d="M4530 3035 c-378 -62 -650 -331 -732 -725 -28 -133 -21 -317 17 -444
73 -248 233 -444 450 -551 152 -75 219 -89 440 -89 179 0 195 1 279 27 200 62
362 176 479 337 10 14 20 21 23 15 3 -5 33 -84 67 -175 l63 -165 167 -3 c96
-1 167 1 167 7 0 5 -72 201 -161 436 l-161 428 161 428 c89 235 161 430 161
433 0 4 -75 6 -168 6 l-167 0 -64 -172 c-36 -95 -66 -175 -68 -178 -3 -3 -14
9 -26 25 -41 58 -163 178 -221 217 -82 56 -190 104 -288 128 -110 27 -305 34
-418 15z m309 -310 c78 -19 180 -71 243 -125 154 -133 243 -406 194 -600 -70
-278 -298 -471 -561 -474 -237 -3 -435 124 -540 346 -70 147 -78 301 -24 461
69 207 248 366 449 400 59 10 180 6 239 -8z"/>
</g>
</svg>
